<svg xmlns="http://www.w3.org/2000/svg" xmlns:xlink="http://www.w3.org/1999/xlink" contentStyleType="text/css" data-diagram-type="CLASS" height="299px" preserveAspectRatio="none" style="width:481px;height:299px;background:#FFFFFF;" version="1.1" viewBox="0 0 481 299" width="481px" zoomAndPan="magnify"><defs/><g><!--class CounterUI--><g class="entity" data-entity="CounterUI" data-source-line="1" data-uid="ent0002" id="entity_CounterUI"><rect fill="#F1F1F1" height="64.4883" rx="2.5" ry="2.5" style="stroke:#181818;stroke-width:0.5;" width="100.1611" x="7" y="77.9722"/><ellipse cx="22" cy="93.9722" fill="#ADD1B2" rx="11" ry="11" style="stroke:#181818;stroke-width:1;"/><path d="M24.4731,100.1153 Q23.8921,100.4141 23.2529,100.5635 Q22.6138,100.7129 21.9082,100.7129 Q19.4014,100.7129 18.0815,99.0611 Q16.7617,97.4092 16.7617,94.2881 Q16.7617,91.1587 18.0815,89.5069 Q19.4014,87.855 21.9082,87.855 Q22.6138,87.855 23.2612,88.0044 Q23.9087,88.1538 24.4731,88.4527 L24.4731,91.1753 Q23.8423,90.5943 23.2488,90.3245 Q22.6553,90.0547 22.0244,90.0547 Q20.6797,90.0547 19.9949,91.1214 Q19.3101,92.188 19.3101,94.2881 Q19.3101,96.3799 19.9949,97.4466 Q20.6797,98.5132 22.0244,98.5132 Q22.6553,98.5132 23.2488,98.2434 Q23.8423,97.9737 24.4731,97.3926 Z " fill="#000000"/><text fill="#000000" font-family="sans-serif" font-size="14" lengthAdjust="spacing" textLength="68.1611" x="36" y="99.2632">CounterUI</text><line style="stroke:#181818;stroke-width:0.5;" x1="8" x2="106.1611" y1="109.9722" y2="109.9722"/><line style="stroke:#181818;stroke-width:0.5;" x1="8" x2="106.1611" y1="117.9722" y2="117.9722"/><ellipse cx="18" cy="131.7163" fill="#84BE84" rx="3" ry="3" style="stroke:#038048;stroke-width:1;"/><text fill="#000000" font-family="sans-serif" font-size="14" lengthAdjust="spacing" textLength="56.1846" x="27" y="135.5073">update()</text></g><!--class Counter--><g class="entity" data-entity="Counter" data-source-line="4" data-uid="ent0003" id="entity_Counter"><rect fill="#F1F1F1" height="113.9531" rx="2.5" ry="2.5" style="stroke:#181818;stroke-width:0.5;" width="107.2109" x="367.48" y="53.2422"/><ellipse cx="391.8324" cy="69.2422" fill="#ADD1B2" rx="11" ry="11" style="stroke:#181818;stroke-width:1;"/><path d="M394.3056,75.3853 Q393.7245,75.6841 393.0854,75.8335 Q392.4462,75.9829 391.7406,75.9829 Q389.2338,75.9829 387.914,74.3311 Q386.5942,72.6792 386.5942,69.5581 Q386.5942,66.4287 387.914,64.7769 Q389.2338,63.125 391.7406,63.125 Q392.4462,63.125 393.0937,63.2744 Q393.7411,63.4238 394.3056,63.7227 L394.3056,66.4453 Q393.6747,65.8643 393.0812,65.5945 Q392.4877,65.3247 391.8569,65.3247 Q390.5121,65.3247 389.8273,66.3914 Q389.1425,67.458 389.1425,69.5581 Q389.1425,71.6499 389.8273,72.7166 Q390.5121,73.7832 391.8569,73.7832 Q392.4877,73.7832 393.0812,73.5134 Q393.6747,73.2437 394.3056,72.6626 Z " fill="#000000"/><text fill="#000000" font-family="sans-serif" font-size="14" lengthAdjust="spacing" textLength="54.4277" x="407.9108" y="74.5332">Counter</text><line style="stroke:#181818;stroke-width:0.5;" x1="368.48" x2="473.6909" y1="85.2422" y2="85.2422"/><line style="stroke:#181818;stroke-width:0.5;" x1="368.48" x2="473.6909" y1="93.2422" y2="93.2422"/><ellipse cx="378.48" cy="106.9863" fill="#84BE84" rx="3" ry="3" style="stroke:#038048;stroke-width:1;"/><text fill="#000000" font-family="sans-serif" font-size="14" lengthAdjust="spacing" textLength="77.335" x="387.48" y="110.7773">increment()</text><ellipse cx="378.48" cy="123.4746" fill="#84BE84" rx="3" ry="3" style="stroke:#038048;stroke-width:1;"/><text fill="#000000" font-family="sans-serif" font-size="14" lengthAdjust="spacing" textLength="81.2109" x="387.48" y="127.2656">decrement()</text><ellipse cx="378.48" cy="139.9629" fill="#84BE84" rx="3" ry="3" style="stroke:#038048;stroke-width:1;"/><text fill="#000000" font-family="sans-serif" font-size="14" lengthAdjust="spacing" textLength="42.8066" x="387.48" y="143.7539">reset()</text><ellipse cx="378.48" cy="156.4512" fill="#84BE84" rx="3" ry="3" style="stroke:#038048;stroke-width:1;"/><text fill="#000000" font-family="sans-serif" font-size="14" lengthAdjust="spacing" textLength="68.291" x="387.48" y="160.2422">getValue()</text></g><!--class CounterCtrl--><g class="entity" data-entity="CounterCtrl" data-source-line="10" data-uid="ent0004" id="entity_CounterCtrl"><rect fill="#F1F1F1" height="113.9531" rx="2.5" ry="2.5" style="stroke:#181818;stroke-width:0.5;" width="111.126" x="171.52" y="53.2422"/><ellipse cx="186.52" cy="69.2422" fill="#ADD1B2" rx="11" ry="11" style="stroke:#181818;stroke-width:1;"/><path d="M188.9931,75.3853 Q188.4121,75.6841 187.7729,75.8335 Q187.1338,75.9829 186.4282,75.9829 Q183.9214,75.9829 182.6015,74.3311 Q181.2817,72.6792 181.2817,69.5581 Q181.2817,66.4287 182.6015,64.7769 Q183.9214,63.125 186.4282,63.125 Q187.1338,63.125 187.7812,63.2744 Q188.4287,63.4238 188.9931,63.7227 L188.9931,66.4453 Q188.3623,65.8643 187.7688,65.5945 Q187.1753,65.3247 186.5444,65.3247 Q185.1997,65.3247 184.5149,66.3914 Q183.8301,67.458 183.8301,69.5581 Q183.8301,71.6499 184.5149,72.7166 Q185.1997,73.7832 186.5444,73.7832 Q187.1753,73.7832 187.7688,73.5134 Q188.3623,73.2437 188.9931,72.6626 Z " fill="#000000"/><text fill="#000000" font-family="sans-serif" font-size="14" lengthAdjust="spacing" textLength="79.126" x="200.52" y="74.5332">CounterCtrl</text><line style="stroke:#181818;stroke-width:0.5;" x1="172.52" x2="281.646" y1="85.2422" y2="85.2422"/><line style="stroke:#181818;stroke-width:0.5;" x1="172.52" x2="281.646" y1="93.2422" y2="93.2422"/><ellipse cx="182.52" cy="106.9863" fill="#84BE84" rx="3" ry="3" style="stroke:#038048;stroke-width:1;"/><text fill="#000000" font-family="sans-serif" font-size="14" lengthAdjust="spacing" textLength="37.7891" x="191.52" y="110.7773">plus()</text><ellipse cx="182.52" cy="123.4746" fill="#84BE84" rx="3" ry="3" style="stroke:#038048;stroke-width:1;"/><text fill="#000000" font-family="sans-serif" font-size="14" lengthAdjust="spacing" textLength="50.7363" x="191.52" y="127.2656">minus()</text><ellipse cx="182.52" cy="139.9629" fill="#84BE84" rx="3" ry="3" style="stroke:#038048;stroke-width:1;"/><text fill="#000000" font-family="sans-serif" font-size="14" lengthAdjust="spacing" textLength="42.8066" x="191.52" y="143.7539">reset()</text><polygon fill="#4177AF" points="182.52,152.4512,178.52,158.4512,186.52,158.4512" style="stroke:#1963A0;stroke-width:1;"/><text fill="#000000" font-family="sans-serif" font-size="14" lengthAdjust="spacing" textLength="43.0117" x="191.52" y="160.2422">setUI()</text></g><!--class MainApp--><g class="entity" data-entity="MainApp" data-source-line="20" data-uid="ent0009" id="entity_MainApp"><rect fill="#F1F1F1" height="48" rx="2.5" ry="2.5" style="stroke:#181818;stroke-width:0.5;" width="91.8076" x="181.18" y="244.1922"/><ellipse cx="196.18" cy="260.1922" fill="#ADD1B2" rx="11" ry="11" style="stroke:#181818;stroke-width:1;"/><path d="M198.6531,266.3353 Q198.0721,266.6341 197.4329,266.7835 Q196.7938,266.9329 196.0882,266.9329 Q193.5814,266.9329 192.2615,265.2811 Q190.9417,263.6292 190.9417,260.5081 Q190.9417,257.3787 192.2615,255.7269 Q193.5814,254.075 196.0882,254.075 Q196.7938,254.075 197.4412,254.2244 Q198.0887,254.3738 198.6531,254.6727 L198.6531,257.3953 Q198.0223,256.8143 197.4288,256.5445 Q196.8353,256.2747 196.2044,256.2747 Q194.8597,256.2747 194.1749,257.3414 Q193.4901,258.408 193.4901,260.5081 Q193.4901,262.5999 194.1749,263.6666 Q194.8597,264.7332 196.2044,264.7332 Q196.8353,264.7332 197.4288,264.4634 Q198.0223,264.1937 198.6531,263.6126 Z " fill="#000000"/><text fill="#000000" font-family="sans-serif" font-size="14" lengthAdjust="spacing" textLength="59.8076" x="210.18" y="265.4832">MainApp</text><line style="stroke:#181818;stroke-width:0.5;" x1="182.18" x2="271.9876" y1="276.1922" y2="276.1922"/><line style="stroke:#181818;stroke-width:0.5;" x1="182.18" x2="271.9876" y1="284.1922" y2="284.1922"/></g><!--link CounterUI to Counter--><g class="link" data-entity-1="CounterUI" data-entity-2="Counter" data-source-line="16" data-uid="lnk5" id="link_CounterUI_Counter"><path codeLine="16" d="M99.76,77.5122 C129.46,56.9722 170.96,32.4822 212.08,22.1522 C266.88,8.3922 320.9783,34.3293 362.2783,62.7693" fill="none" id="CounterUI-to-Counter" style="stroke:#181818;stroke-width:1;"/><polygon fill="#181818" points="367.22,66.1722,362.0761,57.7733,363.1019,63.3364,357.5389,64.3622,367.22,66.1722" style="stroke:#181818;stroke-width:1;"/><text fill="#000000" font-family="sans-serif" font-size="13" lengthAdjust="spacing" textLength="48.2041" x="213.08" y="19.8105">counter</text></g><!--link CounterCtrl to CounterUI--><g class="link" data-entity-1="CounterCtrl" data-entity-2="CounterUI" data-source-line="17" data-uid="lnk6" id="link_CounterCtrl_CounterUI"><path codeLine="17" d="M171.02,128.4922 C158.52,130.7822 145.28,131.8322 132.84,130.2122 C124.48,129.1322 121.5579,128.7876 113.0879,126.7776" fill="none" id="CounterCtrl-to-CounterUI" style="stroke:#181818;stroke-width:1;"/><polygon fill="#181818" points="107.25,125.3922,115.0832,131.3622,112.1149,126.5467,116.9304,123.5783,107.25,125.3922" style="stroke:#181818;stroke-width:1;"/><text fill="#000000" font-family="sans-serif" font-size="13" lengthAdjust="spacing" textLength="11.8257" x="133.84" y="126.7805">ui</text></g><!--link CounterUI to CounterCtrl--><g class="link" data-entity-1="CounterUI" data-entity-2="CounterCtrl" data-source-line="19" data-uid="lnk8" id="link_CounterUI_CounterCtrl"><path codeLine="19" d="M107.63,110.2122 C127.59,110.2122 144.61,110.2122 165.08,110.2122" fill="none" id="CounterUI-to-CounterCtrl" style="stroke:#181818;stroke-width:1;stroke-dasharray:7,7;"/><polygon fill="#181818" points="171.08,110.2122,162.08,106.2122,166.08,110.2122,162.08,114.2122,171.08,110.2122" style="stroke:#181818;stroke-width:1;"/><text fill="#000000" font-family="sans-serif" font-size="13" lengthAdjust="spacing" textLength="28.5645" x="125.34" y="103.7805">uses</text></g><!--link CounterCtrl to Counter--><g class="link" data-entity-1="CounterCtrl" data-entity-2="Counter" data-source-line="18" data-uid="lnk7" id="link_CounterCtrl_Counter"><path codeLine="18" d="M282.93,110.2122 C309.46,110.2122 335.03,110.2122 361.29,110.2122" fill="none" id="CounterCtrl-to-Counter" style="stroke:#181818;stroke-width:1;"/><polygon fill="#181818" points="367.29,110.2122,358.29,106.2122,362.29,110.2122,358.29,114.2122,367.29,110.2122" style="stroke:#181818;stroke-width:1;"/><text fill="#000000" font-family="sans-serif" font-size="13" lengthAdjust="spacing" textLength="48.2041" x="301.06" y="103.7805">counter</text></g><!--reverse link Counter to MainApp--><g class="link" data-entity-1="Counter" data-entity-2="MainApp" data-source-line="20" data-uid="lnk10" id="link_Counter_MainApp"><path codeLine="20" d="M362.3641,158.4219 C326.4841,187.2719 285.46,220.2522 256.23,243.7522" fill="none" id="Counter-backto-MainApp" style="stroke:#181818;stroke-width:1;stroke-dasharray:7,7;"/><polygon fill="#181818" points="367.04,154.6622,357.5196,157.1846,363.1434,157.7953,362.5326,163.4191,367.04,154.6622" style="stroke:#181818;stroke-width:1;"/><text fill="#000000" font-family="sans-serif" font-size="13" lengthAdjust="spacing" textLength="45.1318" x="313.47" y="210.7605">creates</text></g><!--reverse link CounterCtrl to MainApp--><g class="link" data-entity-1="CounterCtrl" data-entity-2="MainApp" data-source-line="21" data-uid="lnk11" id="link_CounterCtrl_MainApp"><path codeLine="21" d="M227.08,173.5222 C227.08,199.8822 227.08,223.8222 227.08,243.9422" fill="none" id="CounterCtrl-backto-MainApp" style="stroke:#181818;stroke-width:1;stroke-dasharray:7,7;"/><polygon fill="#181818" points="227.08,167.5222,223.08,176.5222,227.08,172.5222,231.08,176.5222,227.08,167.5222" style="stroke:#181818;stroke-width:1;"/><text fill="#000000" font-family="sans-serif" font-size="13" lengthAdjust="spacing" textLength="45.1318" x="228.08" y="210.7605">creates</text></g><!--reverse link CounterUI to MainApp--><g class="link" data-entity-1="CounterUI" data-entity-2="MainApp" data-source-line="22" data-uid="lnk12" id="link_CounterUI_MainApp"><path codeLine="22" d="M95.9011,146.8385 C128.5011,176.7485 172.29,216.9222 201.58,243.8022" fill="none" id="CounterUI-backto-MainApp" style="stroke:#181818;stroke-width:1;stroke-dasharray:7,7;"/><polygon fill="#181818" points="91.48,142.7822,95.4075,151.8141,95.1643,146.1624,100.8159,145.9192,91.48,142.7822" style="stroke:#181818;stroke-width:1;"/><text fill="#000000" font-family="sans-serif" font-size="13" lengthAdjust="spacing" textLength="45.1318" x="168.24" y="210.7605">creates</text></g><!--SRC=[XP312W8X54NtVSLR5f4V834GitBHqlRYF49mJ7owYlhsn2P6QvXSYEzol0S50D1M4K5_IovYa0Bk6vZMFlb1HTpkIl8eUqFNh74wu8WkJdW91rm80n8smHNZHTcq8kfZiBNCsqHrmsXS6tmxddcKeX7CBpvqdu63VXzgeiXdHWeEoQm0YoLPmrZNtE29a6e6Zep1MHbtyZwN1CoVJp-YVr0sBI4l]--></g></svg>