<svg xmlns="http://www.w3.org/2000/svg" xmlns:xlink="http://www.w3.org/1999/xlink" contentStyleType="text/css" data-diagram-type="SEQUENCE" height="247px" preserveAspectRatio="none" style="width:466px;height:247px;background:#FFFFFF;" version="1.1" viewBox="0 0 466 247" width="466px" zoomAndPan="magnify"><defs/><g><g><title>MainApp</title><rect fill="#000000" fill-opacity="0.00000" height="175" width="8" x="37.4" y="36.8"/><line style="stroke:#181818;stroke-width:0.5;stroke-dasharray:5,5;" x1="41" x2="41" y1="36.8" y2="211.8"/></g><g><title>Counter</title><rect fill="#000000" fill-opacity="0.00000" height="134.1" width="8" x="199.2" y="77.7"/><line style="stroke:#181818;stroke-width:0.5;stroke-dasharray:5,5;" x1="202.8" x2="202.8" y1="77.7" y2="211.8"/></g><g><title>CounterCtrl</title><rect fill="#000000" fill-opacity="0.00000" height="92.3" width="8" x="301.8" y="119.5"/><line style="stroke:#181818;stroke-width:0.5;stroke-dasharray:5,5;" x1="305.6" x2="305.6" y1="119.5" y2="211.8"/></g><g><title>CounterUI</title><rect fill="#000000" fill-opacity="0.00000" height="50.5" width="8" x="411.6001" y="161.3"/><line style="stroke:#181818;stroke-width:0.5;stroke-dasharray:5,5;" x1="414.8" x2="414.8" y1="161.3" y2="211.8"/></g><g class="participant participant-head" data-participant="MainApp"><rect fill="#E2E2F0" height="30.8" rx="2.5" ry="2.5" style="stroke:#181818;stroke-width:0.5;" width="72.8" x="5" y="5"/><text fill="#000000" font-family="'Fira Code'" font-size="14" lengthAdjust="spacing" textLength="58.8" x="12" y="25.09">MainApp</text></g><g class="participant participant-tail" data-participant="MainApp"><rect fill="#E2E2F0" height="30.8" rx="2.5" ry="2.5" style="stroke:#181818;stroke-width:0.5;" width="72.8" x="5" y="210.8"/><text fill="#000000" font-family="'Fira Code'" font-size="14" lengthAdjust="spacing" textLength="58.8" x="12" y="230.89">MainApp</text></g><g class="participant participant-tail" data-participant="Counter"><rect fill="#E2E2F0" height="30.8" rx="2.5" ry="2.5" style="stroke:#181818;stroke-width:0.5;" width="72.8" x="166.8" y="210.8"/><text fill="#000000" font-family="'Fira Code'" font-size="14" lengthAdjust="spacing" textLength="58.8" x="173.8" y="230.89">Counter</text></g><g class="participant participant-tail" data-participant="CounterCtrl"><rect fill="#E2E2F0" height="30.8" rx="2.5" ry="2.5" style="stroke:#181818;stroke-width:0.5;" width="106.4" x="252.6" y="210.8"/><text fill="#000000" font-family="'Fira Code'" font-size="14" lengthAdjust="spacing" textLength="92.4" x="259.6" y="230.89">CounterCtrl</text></g><g class="participant participant-tail" data-participant="CounterUI"><rect fill="#E2E2F0" height="30.8" rx="2.5" ry="2.5" style="stroke:#181818;stroke-width:0.5;" width="89.6" x="370.8" y="210.8"/><text fill="#000000" font-family="'Fira Code'" font-size="14" lengthAdjust="spacing" textLength="75.6" x="377.8" y="230.89">CounterUI</text></g><g class="message" data-participant-1="MainApp" data-participant-2="Counter"><polygon fill="#181818" points="154.8,64.4,164.8,68.4,154.8,72.4,158.8,68.4" style="stroke:#181818;stroke-width:1;"/><line style="stroke:#181818;stroke-width:1;" x1="41.4" x2="160.8" y1="68.4" y2="68.4"/><text fill="#000000" font-family="'Fira Code'" font-size="13" lengthAdjust="spacing" textLength="101.4" x="48.4" y="62.955">new Counter()</text></g><rect fill="#E2E2F0" height="30.8" rx="2.5" ry="2.5" style="stroke:#181818;stroke-width:0.5;" width="72.8" x="166.8" y="46.8"/><text fill="#000000" font-family="'Fira Code'" font-size="14" lengthAdjust="spacing" textLength="58.8" x="173.8" y="66.89">Counter</text><g class="message" data-participant-1="MainApp" data-participant-2="CounterCtrl"><polygon fill="#181818" points="240.6,106.2,250.6,110.2,240.6,114.2,244.6,110.2" style="stroke:#181818;stroke-width:1;"/><line style="stroke:#181818;stroke-width:1;" x1="41.4" x2="246.6" y1="110.2" y2="110.2"/><text fill="#000000" font-family="'Fira Code'" font-size="13" lengthAdjust="spacing" textLength="187.2" x="48.4" y="104.755">new CounterCtrl(counter)</text></g><rect fill="#E2E2F0" height="30.8" rx="2.5" ry="2.5" style="stroke:#181818;stroke-width:0.5;" width="106.4" x="252.6" y="88.6"/><text fill="#000000" font-family="'Fira Code'" font-size="14" lengthAdjust="spacing" textLength="92.4" x="259.6" y="108.69">CounterCtrl</text><g class="message" data-participant-1="MainApp" data-participant-2="CounterUI"><polygon fill="#181818" points="358.8,148,368.8,152,358.8,156,362.8,152" style="stroke:#181818;stroke-width:1;"/><line style="stroke:#181818;stroke-width:1;" x1="41.4" x2="364.8" y1="152" y2="152"/><text fill="#000000" font-family="'Fira Code'" font-size="13" lengthAdjust="spacing" textLength="265.2" x="48.4" y="146.555">new CounterUI(counter, controller)</text></g><rect fill="#E2E2F0" height="30.8" rx="2.5" ry="2.5" style="stroke:#181818;stroke-width:0.5;" width="89.6" x="370.8" y="130.4"/><text fill="#000000" font-family="'Fira Code'" font-size="14" lengthAdjust="spacing" textLength="75.6" x="377.8" y="150.49">CounterUI</text><g class="message" data-participant-1="CounterUI" data-participant-2="CounterCtrl"><polygon fill="#181818" points="316.8,189.8,306.8,193.8,316.8,197.8,312.8,193.8" style="stroke:#181818;stroke-width:1;"/><line style="stroke:#181818;stroke-width:1;" x1="310.8" x2="414.6001" y1="193.8" y2="193.8"/><text fill="#000000" font-family="'Fira Code'" font-size="13" lengthAdjust="spacing" textLength="85.8" x="322.8" y="188.355">setUI(this)</text></g><!--SRC=[ROz12iCW44NtdcB8AWdj1R8e527WejrvWC5OAZKgEg7Nhz9AQUDkUFptFvCUnWMCkCAYRxXPchsZAwuQkjb41EuNtR6S8ADCG4TmGUFE8VmmxZT7EhOOfsXRN0h6FbLmF5KAumWJEFsie1yQgTAvInROg_VTagJOAL9KuG0g_nszjKN-6d-R4oHDsQAxISCB]--></g></svg>