<svg xmlns="http://www.w3.org/2000/svg" xmlns:xlink="http://www.w3.org/1999/xlink" contentStyleType="text/css" data-diagram-type="SEQUENCE" height="343px" preserveAspectRatio="none" style="width:364px;height:343px;background:#FFFFFF;" version="1.1" viewBox="0 0 364 343" width="364px" zoomAndPan="magnify"><defs/><g><g><title>CounterUI</title><rect fill="#FFFFFF" height="43.6" style="stroke:#181818;stroke-width:1;" width="10" x="94.4" y="186.6"/></g><g><title>CounterCtrl</title><rect fill="#FFFFFF" height="116.8" style="stroke:#181818;stroke-width:1;" width="10" x="202.4" y="127.4"/></g><g><title>User</title><rect fill="#000000" fill-opacity="0.00000" height="180.4" width="8" x="20.8" y="81.8"/><line style="stroke:#181818;stroke-width:0.5;stroke-dasharray:5,5;" x1="24" x2="24" y1="81.8" y2="262.2"/></g><g><title>CounterUI</title><rect fill="#000000" fill-opacity="0.00000" height="180.4" width="8" x="95.4" y="81.8"/><line style="stroke:#181818;stroke-width:0.5;stroke-dasharray:5,5;" x1="98.6" x2="98.6" y1="81.8" y2="262.2"/></g><g><title>CounterCtrl</title><rect fill="#000000" fill-opacity="0.00000" height="180.4" width="8" x="203.4" y="81.8"/><line style="stroke:#181818;stroke-width:0.5;stroke-dasharray:5,5;" x1="207.2" x2="207.2" y1="81.8" y2="262.2"/></g><g><title>Counter</title><rect fill="#000000" fill-opacity="0.00000" height="180.4" width="8" x="318.2" y="81.8"/><line style="stroke:#181818;stroke-width:0.5;stroke-dasharray:5,5;" x1="321.8" x2="321.8" y1="81.8" y2="262.2"/></g><g class="participant participant-head" data-participant="User"><text fill="#000000" font-family="'Fira Code'" font-size="14" lengthAdjust="spacing" textLength="33.6" x="5" y="78.09">User</text><ellipse cx="24.8" cy="13.5" fill="#E2E2F0" rx="8" ry="8" style="stroke:#181818;stroke-width:0.5;"/><path d="M24.8,21.5 L24.8,48.5 M11.8,29.5 L37.8,29.5 M24.8,48.5 L11.8,63.5 M24.8,48.5 L37.8,63.5" fill="none" style="stroke:#181818;stroke-width:0.5;"/></g><g class="participant participant-tail" data-participant="User"><text fill="#000000" font-family="'Fira Code'" font-size="14" lengthAdjust="spacing" textLength="33.6" x="5" y="274.29">User</text><ellipse cx="24.8" cy="286.5" fill="#E2E2F0" rx="8" ry="8" style="stroke:#181818;stroke-width:0.5;"/><path d="M24.8,294.5 L24.8,321.5 M11.8,302.5 L37.8,302.5 M24.8,321.5 L11.8,336.5 M24.8,321.5 L37.8,336.5" fill="none" style="stroke:#181818;stroke-width:0.5;"/></g><g class="participant participant-head" data-participant="CounterUI"><rect fill="#E2E2F0" height="30.8" rx="2.5" ry="2.5" style="stroke:#181818;stroke-width:0.5;" width="89.6" x="54.6" y="50"/><text fill="#000000" font-family="'Fira Code'" font-size="14" lengthAdjust="spacing" textLength="75.6" x="61.6" y="70.09">CounterUI</text></g><g class="participant participant-tail" data-participant="CounterUI"><rect fill="#E2E2F0" height="30.8" rx="2.5" ry="2.5" style="stroke:#181818;stroke-width:0.5;" width="89.6" x="54.6" y="261.2"/><text fill="#000000" font-family="'Fira Code'" font-size="14" lengthAdjust="spacing" textLength="75.6" x="61.6" y="281.29">CounterUI</text></g><g class="participant participant-head" data-participant="CounterCtrl"><rect fill="#E2E2F0" height="30.8" rx="2.5" ry="2.5" style="stroke:#181818;stroke-width:0.5;" width="106.4" x="154.2" y="50"/><text fill="#000000" font-family="'Fira Code'" font-size="14" lengthAdjust="spacing" textLength="92.4" x="161.2" y="70.09">CounterCtrl</text></g><g class="participant participant-tail" data-participant="CounterCtrl"><rect fill="#E2E2F0" height="30.8" rx="2.5" ry="2.5" style="stroke:#181818;stroke-width:0.5;" width="106.4" x="154.2" y="261.2"/><text fill="#000000" font-family="'Fira Code'" font-size="14" lengthAdjust="spacing" textLength="92.4" x="161.2" y="281.29">CounterCtrl</text></g><g class="participant participant-head" data-participant="Counter"><rect fill="#E2E2F0" height="30.8" rx="2.5" ry="2.5" style="stroke:#181818;stroke-width:0.5;" width="72.8" x="285.8" y="50"/><text fill="#000000" font-family="'Fira Code'" font-size="14" lengthAdjust="spacing" textLength="58.8" x="292.8" y="70.09">Counter</text></g><g class="participant participant-tail" data-participant="Counter"><rect fill="#E2E2F0" height="30.8" rx="2.5" ry="2.5" style="stroke:#181818;stroke-width:0.5;" width="72.8" x="285.8" y="261.2"/><text fill="#000000" font-family="'Fira Code'" font-size="14" lengthAdjust="spacing" textLength="58.8" x="292.8" y="281.29">Counter</text></g><g><title>CounterUI</title><rect fill="#FFFFFF" height="43.6" style="stroke:#181818;stroke-width:1;" width="10" x="94.4" y="186.6"/></g><g><title>CounterCtrl</title><rect fill="#FFFFFF" height="116.8" style="stroke:#181818;stroke-width:1;" width="10" x="202.4" y="127.4"/></g><g class="message" data-participant-1="User" data-participant-2="CounterUI"><polygon fill="#181818" points="87.4,93.8,97.4,97.8,87.4,101.8,91.4,97.8" style="stroke:#181818;stroke-width:1;"/><line style="stroke:#181818;stroke-width:1;" x1="24.8" x2="93.4" y1="97.8" y2="97.8"/></g><g class="message" data-participant-1="CounterUI" data-participant-2="CounterCtrl"><polygon fill="#181818" points="190.4,123.4,200.4,127.4,190.4,131.4,194.4,127.4" style="stroke:#181818;stroke-width:1;"/><line style="stroke:#181818;stroke-width:1;" x1="99.4" x2="196.4" y1="127.4" y2="127.4"/><text fill="#000000" font-family="'Fira Code'" font-size="13" lengthAdjust="spacing" textLength="46.8" x="106.4" y="121.955">plus()</text></g><g class="message" data-participant-1="CounterCtrl" data-participant-2="Counter"><polygon fill="#181818" points="310.2,153,320.2,157,310.2,161,314.2,157" style="stroke:#181818;stroke-width:1;"/><line style="stroke:#181818;stroke-width:1;" x1="212.4" x2="316.2" y1="157" y2="157"/><text fill="#000000" font-family="'Fira Code'" font-size="13" lengthAdjust="spacing" textLength="85.8" x="219.4" y="151.555">increment()</text></g><g class="message" data-participant-1="CounterCtrl" data-participant-2="CounterUI"><polygon fill="#181818" points="115.4,182.6,105.4,186.6,115.4,190.6,111.4,186.6" style="stroke:#181818;stroke-width:1;"/><line style="stroke:#181818;stroke-width:1;" x1="109.4" x2="201.4" y1="186.6" y2="186.6"/><text fill="#000000" font-family="'Fira Code'" font-size="13" lengthAdjust="spacing" textLength="62.4" x="121.4" y="181.155">update()</text></g><g class="message" data-participant-1="CounterUI" data-participant-2="Counter"><polygon fill="#181818" points="310.2,212.2,320.2,216.2,310.2,220.2,314.2,216.2" style="stroke:#181818;stroke-width:1;"/><line style="stroke:#181818;stroke-width:1;" x1="104.4" x2="316.2" y1="216.2" y2="216.2"/><text fill="#000000" font-family="'Fira Code'" font-size="13" lengthAdjust="spacing" textLength="78" x="111.4" y="210.755">getValue()</text></g><g class="message" data-participant-1="CounterUI" data-participant-2="CounterCtrl"><polygon fill="#181818" points="190.4,226.2,200.4,230.2,190.4,234.2,194.4,230.2" style="stroke:#181818;stroke-width:1;"/><line style="stroke:#181818;stroke-width:1;stroke-dasharray:2,2;" x1="99.4" x2="196.4" y1="230.2" y2="230.2"/></g><g class="message" data-participant-1="CounterCtrl" data-participant-2="CounterUI"><polygon fill="#181818" points="110.4,240.2,100.4,244.2,110.4,248.2,106.4,244.2" style="stroke:#181818;stroke-width:1;"/><line style="stroke:#181818;stroke-width:1;stroke-dasharray:2,2;" x1="104.4" x2="206.4" y1="244.2" y2="244.2"/></g><!--SRC=[TOun3iCW34LtJc5bQXLnWGnT8aNgqYtTBU9Mg8GWO-uVqg64ADtG_u_t7J_M1sISOQ8N9YV3ukM1Cq4pM4RebuaQXKOMXZ4IgmoBDJQWbrmcByJZ_IpjXTrPhjJc0NqhtpjGl_Uks0pGjj11S2bUhcgV5wm3wmtJJ5x-Cjdx5QKmeL31ghtSlqcUwDA1E9oaTRrIpMWDAm00]--></g></svg>